<mxfile host="app.diagrams.net" agent="Mozilla/5.0 (Windows NT 10.0; Win64; x64; rv:132.0) Gecko/20100101 Firefox/132.0" version="24.8.9">
  <diagram id="C5RBs43oDa-KdzZeNtuy" name="Page-1">
    <mxGraphModel dx="1366" dy="745" grid="1" gridSize="10" guides="1" tooltips="1" connect="1" arrows="1" fold="1" page="1" pageScale="1" pageWidth="827" pageHeight="1169" math="0" shadow="0">
      <root>
        <mxCell id="WIyWlLk6GJQsqaUBKTNV-0" />
        <mxCell id="WIyWlLk6GJQsqaUBKTNV-1" parent="WIyWlLk6GJQsqaUBKTNV-0" />
        <mxCell id="kNHVGDkVlNN8PsUicPPs-28" style="edgeStyle=orthogonalEdgeStyle;rounded=0;orthogonalLoop=1;jettySize=auto;html=1;endArrow=none;endFill=0;strokeColor=#99CCFF;" edge="1" parent="WIyWlLk6GJQsqaUBKTNV-1" source="kNHVGDkVlNN8PsUicPPs-15">
          <mxGeometry relative="1" as="geometry">
            <mxPoint x="560" y="280" as="targetPoint" />
          </mxGeometry>
        </mxCell>
        <mxCell id="kNHVGDkVlNN8PsUicPPs-37" style="edgeStyle=orthogonalEdgeStyle;rounded=0;orthogonalLoop=1;jettySize=auto;html=1;entryX=1;entryY=0.5;entryDx=0;entryDy=0;strokeColor=#007FFF;" edge="1" parent="WIyWlLk6GJQsqaUBKTNV-1" source="kNHVGDkVlNN8PsUicPPs-33" target="kNHVGDkVlNN8PsUicPPs-5">
          <mxGeometry relative="1" as="geometry">
            <Array as="points">
              <mxPoint x="390" y="580" />
              <mxPoint x="390" y="150" />
            </Array>
          </mxGeometry>
        </mxCell>
        <mxCell id="kNHVGDkVlNN8PsUicPPs-2" value="" style="edgeStyle=orthogonalEdgeStyle;rounded=0;orthogonalLoop=1;jettySize=auto;html=1;" edge="1" parent="WIyWlLk6GJQsqaUBKTNV-1" source="kNHVGDkVlNN8PsUicPPs-0" target="kNHVGDkVlNN8PsUicPPs-1">
          <mxGeometry relative="1" as="geometry" />
        </mxCell>
        <mxCell id="kNHVGDkVlNN8PsUicPPs-8" style="edgeStyle=orthogonalEdgeStyle;rounded=0;orthogonalLoop=1;jettySize=auto;html=1;entryX=0;entryY=0.5;entryDx=0;entryDy=0;" edge="1" parent="WIyWlLk6GJQsqaUBKTNV-1" source="kNHVGDkVlNN8PsUicPPs-0" target="kNHVGDkVlNN8PsUicPPs-5">
          <mxGeometry relative="1" as="geometry" />
        </mxCell>
        <mxCell id="kNHVGDkVlNN8PsUicPPs-18" style="edgeStyle=orthogonalEdgeStyle;rounded=0;orthogonalLoop=1;jettySize=auto;html=1;entryX=0;entryY=0.5;entryDx=0;entryDy=0;" edge="1" parent="WIyWlLk6GJQsqaUBKTNV-1" source="kNHVGDkVlNN8PsUicPPs-0" target="kNHVGDkVlNN8PsUicPPs-17">
          <mxGeometry relative="1" as="geometry">
            <mxPoint x="100" y="511.42857142857144" as="targetPoint" />
            <Array as="points">
              <mxPoint x="100" y="510" />
            </Array>
          </mxGeometry>
        </mxCell>
        <mxCell id="kNHVGDkVlNN8PsUicPPs-0" value="main" style="rounded=1;whiteSpace=wrap;html=1;fillColor=#f5f5f5;fontColor=#333333;strokeColor=#666666;" vertex="1" parent="WIyWlLk6GJQsqaUBKTNV-1">
          <mxGeometry x="40" y="40" width="120" height="60" as="geometry" />
        </mxCell>
        <mxCell id="kNHVGDkVlNN8PsUicPPs-4" value="" style="edgeStyle=orthogonalEdgeStyle;rounded=0;orthogonalLoop=1;jettySize=auto;html=1;" edge="1" parent="WIyWlLk6GJQsqaUBKTNV-1" source="kNHVGDkVlNN8PsUicPPs-1" target="kNHVGDkVlNN8PsUicPPs-3">
          <mxGeometry relative="1" as="geometry" />
        </mxCell>
        <mxCell id="kNHVGDkVlNN8PsUicPPs-1" value="&lt;div&gt;initGrid&lt;/div&gt;" style="rounded=1;whiteSpace=wrap;html=1;fillColor=#f5f5f5;fontColor=#333333;strokeColor=#666666;" vertex="1" parent="WIyWlLk6GJQsqaUBKTNV-1">
          <mxGeometry x="240" y="40" width="120" height="60" as="geometry" />
        </mxCell>
        <mxCell id="kNHVGDkVlNN8PsUicPPs-3" value="&lt;div&gt;copyGrid&lt;/div&gt;" style="rounded=1;whiteSpace=wrap;html=1;fillColor=#f5f5f5;fontColor=#333333;strokeColor=#666666;" vertex="1" parent="WIyWlLk6GJQsqaUBKTNV-1">
          <mxGeometry x="440" y="40" width="120" height="60" as="geometry" />
        </mxCell>
        <mxCell id="kNHVGDkVlNN8PsUicPPs-5" value="placeItem" style="rounded=1;whiteSpace=wrap;html=1;fillColor=#f5f5f5;fontColor=#333333;strokeColor=#666666;" vertex="1" parent="WIyWlLk6GJQsqaUBKTNV-1">
          <mxGeometry x="240" y="120" width="120" height="60" as="geometry" />
        </mxCell>
        <mxCell id="kNHVGDkVlNN8PsUicPPs-9" value="" style="endArrow=none;html=1;rounded=0;entryX=1;entryY=0.5;entryDx=0;entryDy=0;exitX=0;exitY=0.5;exitDx=0;exitDy=0;" edge="1" parent="WIyWlLk6GJQsqaUBKTNV-1" source="kNHVGDkVlNN8PsUicPPs-10" target="kNHVGDkVlNN8PsUicPPs-0">
          <mxGeometry width="50" height="50" relative="1" as="geometry">
            <mxPoint x="240" y="220" as="sourcePoint" />
            <mxPoint x="159.9999999999999" y="50" as="targetPoint" />
            <Array as="points">
              <mxPoint x="200" y="230" />
              <mxPoint x="200" y="70" />
            </Array>
          </mxGeometry>
        </mxCell>
        <mxCell id="kNHVGDkVlNN8PsUicPPs-10" value="lib::SetConsoleTitle" style="rounded=1;whiteSpace=wrap;html=1;glass=1;shadow=0;fillColor=#f5f5f5;fontColor=#333333;strokeColor=#666666;" vertex="1" parent="WIyWlLk6GJQsqaUBKTNV-1">
          <mxGeometry x="240" y="200" width="120" height="60" as="geometry" />
        </mxCell>
        <mxCell id="kNHVGDkVlNN8PsUicPPs-20" value="" style="edgeStyle=orthogonalEdgeStyle;rounded=0;orthogonalLoop=1;jettySize=auto;html=1;" edge="1" parent="WIyWlLk6GJQsqaUBKTNV-1" source="kNHVGDkVlNN8PsUicPPs-13" target="kNHVGDkVlNN8PsUicPPs-19">
          <mxGeometry relative="1" as="geometry" />
        </mxCell>
        <mxCell id="kNHVGDkVlNN8PsUicPPs-13" value="showMessages" style="rounded=1;whiteSpace=wrap;html=1;fillColor=#f5f5f5;fontColor=#333333;strokeColor=#666666;" vertex="1" parent="WIyWlLk6GJQsqaUBKTNV-1">
          <mxGeometry x="240" y="320" width="120" height="60" as="geometry" />
        </mxCell>
        <mxCell id="kNHVGDkVlNN8PsUicPPs-14" style="edgeStyle=orthogonalEdgeStyle;rounded=0;orthogonalLoop=1;jettySize=auto;html=1;exitX=0.5;exitY=1;exitDx=0;exitDy=0;entryX=0;entryY=0.5;entryDx=0;entryDy=0;" edge="1" parent="WIyWlLk6GJQsqaUBKTNV-1" target="kNHVGDkVlNN8PsUicPPs-13">
          <mxGeometry relative="1" as="geometry">
            <mxPoint x="100" y="100" as="sourcePoint" />
            <mxPoint x="200" y="360" as="targetPoint" />
            <Array as="points">
              <mxPoint x="100" y="350" />
            </Array>
          </mxGeometry>
        </mxCell>
        <mxCell id="kNHVGDkVlNN8PsUicPPs-15" value="paintGrid" style="rounded=1;whiteSpace=wrap;html=1;fillColor=#f5f5f5;fontColor=#333333;strokeColor=#666666;" vertex="1" parent="WIyWlLk6GJQsqaUBKTNV-1">
          <mxGeometry x="240" y="400" width="120" height="60" as="geometry" />
        </mxCell>
        <mxCell id="kNHVGDkVlNN8PsUicPPs-16" style="edgeStyle=orthogonalEdgeStyle;rounded=0;orthogonalLoop=1;jettySize=auto;html=1;entryX=0;entryY=0.5;entryDx=0;entryDy=0;" edge="1" parent="WIyWlLk6GJQsqaUBKTNV-1" source="kNHVGDkVlNN8PsUicPPs-0" target="kNHVGDkVlNN8PsUicPPs-15">
          <mxGeometry relative="1" as="geometry">
            <Array as="points">
              <mxPoint x="100" y="430" />
            </Array>
          </mxGeometry>
        </mxCell>
        <mxCell id="kNHVGDkVlNN8PsUicPPs-17" value="GetKeyPress" style="rounded=1;whiteSpace=wrap;html=1;fillColor=#f5f5f5;fontColor=#333333;strokeColor=#666666;" vertex="1" parent="WIyWlLk6GJQsqaUBKTNV-1">
          <mxGeometry x="240" y="480" width="120" height="60" as="geometry" />
        </mxCell>
        <mxCell id="kNHVGDkVlNN8PsUicPPs-21" style="edgeStyle=orthogonalEdgeStyle;rounded=0;orthogonalLoop=1;jettySize=auto;html=1;" edge="1" parent="WIyWlLk6GJQsqaUBKTNV-1" source="kNHVGDkVlNN8PsUicPPs-19" target="kNHVGDkVlNN8PsUicPPs-22">
          <mxGeometry relative="1" as="geometry">
            <mxPoint x="480" y="280" as="targetPoint" />
          </mxGeometry>
        </mxCell>
        <mxCell id="kNHVGDkVlNN8PsUicPPs-25" style="edgeStyle=orthogonalEdgeStyle;rounded=0;orthogonalLoop=1;jettySize=auto;html=1;" edge="1" parent="WIyWlLk6GJQsqaUBKTNV-1" source="kNHVGDkVlNN8PsUicPPs-19" target="kNHVGDkVlNN8PsUicPPs-26">
          <mxGeometry relative="1" as="geometry">
            <mxPoint x="740" y="280" as="targetPoint" />
          </mxGeometry>
        </mxCell>
        <mxCell id="kNHVGDkVlNN8PsUicPPs-19" value="showMessage" style="whiteSpace=wrap;html=1;rounded=1;fillColor=#f5f5f5;fontColor=#333333;strokeColor=#666666;" vertex="1" parent="WIyWlLk6GJQsqaUBKTNV-1">
          <mxGeometry x="420" y="320" width="120" height="60" as="geometry" />
        </mxCell>
        <mxCell id="kNHVGDkVlNN8PsUicPPs-22" value="lib::gotoXy" style="rounded=1;whiteSpace=wrap;html=1;glass=1;fillColor=#f5f5f5;fontColor=#333333;strokeColor=#666666;" vertex="1" parent="WIyWlLk6GJQsqaUBKTNV-1">
          <mxGeometry x="420" y="170" width="120" height="60" as="geometry" />
        </mxCell>
        <mxCell id="kNHVGDkVlNN8PsUicPPs-24" value="lib::selectBackColour" style="rounded=1;whiteSpace=wrap;html=1;glass=1;fillColor=#f5f5f5;fontColor=#333333;strokeColor=#666666;" vertex="1" parent="WIyWlLk6GJQsqaUBKTNV-1">
          <mxGeometry x="560" y="170" width="120" height="60" as="geometry" />
        </mxCell>
        <mxCell id="kNHVGDkVlNN8PsUicPPs-26" value="lib::selectTextColour" style="rounded=1;whiteSpace=wrap;html=1;glass=1;fillColor=#f5f5f5;fontColor=#333333;strokeColor=#666666;" vertex="1" parent="WIyWlLk6GJQsqaUBKTNV-1">
          <mxGeometry x="700" y="170" width="120" height="60" as="geometry" />
        </mxCell>
        <mxCell id="kNHVGDkVlNN8PsUicPPs-30" value="" style="endArrow=classic;html=1;rounded=0;exitX=0.745;exitY=1.054;exitDx=0;exitDy=0;exitPerimeter=0;endFill=1;entryX=0.75;entryY=1;entryDx=0;entryDy=0;strokeColor=#99CCFF;" edge="1" parent="WIyWlLk6GJQsqaUBKTNV-1" target="kNHVGDkVlNN8PsUicPPs-22">
          <mxGeometry width="50" height="50" relative="1" as="geometry">
            <mxPoint x="580" y="280" as="sourcePoint" />
            <mxPoint x="530" y="330" as="targetPoint" />
            <Array as="points">
              <mxPoint x="510" y="280" />
            </Array>
          </mxGeometry>
        </mxCell>
        <mxCell id="kNHVGDkVlNN8PsUicPPs-31" value="" style="endArrow=classic;html=1;rounded=0;entryX=0.75;entryY=1;entryDx=0;entryDy=0;strokeColor=#99CCFF;" edge="1" parent="WIyWlLk6GJQsqaUBKTNV-1" target="kNHVGDkVlNN8PsUicPPs-24">
          <mxGeometry width="50" height="50" relative="1" as="geometry">
            <mxPoint x="580" y="280" as="sourcePoint" />
            <mxPoint x="630" y="230" as="targetPoint" />
            <Array as="points">
              <mxPoint x="650" y="280" />
            </Array>
          </mxGeometry>
        </mxCell>
        <mxCell id="kNHVGDkVlNN8PsUicPPs-32" value="" style="endArrow=classic;html=1;rounded=0;entryX=0.25;entryY=1;entryDx=0;entryDy=0;strokeColor=#99CCFF;" edge="1" parent="WIyWlLk6GJQsqaUBKTNV-1" target="kNHVGDkVlNN8PsUicPPs-26">
          <mxGeometry width="50" height="50" relative="1" as="geometry">
            <mxPoint x="650" y="280" as="sourcePoint" />
            <mxPoint x="700" y="230" as="targetPoint" />
            <Array as="points">
              <mxPoint x="730" y="280" />
            </Array>
          </mxGeometry>
        </mxCell>
        <mxCell id="kNHVGDkVlNN8PsUicPPs-23" style="edgeStyle=orthogonalEdgeStyle;rounded=0;orthogonalLoop=1;jettySize=auto;html=1;" edge="1" parent="WIyWlLk6GJQsqaUBKTNV-1" source="kNHVGDkVlNN8PsUicPPs-19" target="kNHVGDkVlNN8PsUicPPs-24">
          <mxGeometry relative="1" as="geometry">
            <mxPoint x="600" y="280" as="targetPoint" />
          </mxGeometry>
        </mxCell>
        <mxCell id="kNHVGDkVlNN8PsUicPPs-34" style="edgeStyle=orthogonalEdgeStyle;rounded=0;orthogonalLoop=1;jettySize=auto;html=1;" edge="1" parent="WIyWlLk6GJQsqaUBKTNV-1" source="kNHVGDkVlNN8PsUicPPs-0" target="kNHVGDkVlNN8PsUicPPs-33">
          <mxGeometry relative="1" as="geometry">
            <Array as="points">
              <mxPoint x="100" y="590" />
            </Array>
          </mxGeometry>
        </mxCell>
        <mxCell id="kNHVGDkVlNN8PsUicPPs-33" value="updateBlob" style="rounded=1;whiteSpace=wrap;html=1;fillColor=#f5f5f5;fontColor=#333333;strokeColor=#666666;" vertex="1" parent="WIyWlLk6GJQsqaUBKTNV-1">
          <mxGeometry x="240" y="560" width="120" height="60" as="geometry" />
        </mxCell>
        <mxCell id="kNHVGDkVlNN8PsUicPPs-36" value="isLegalPosition" style="rounded=1;whiteSpace=wrap;html=1;fillColor=#f5f5f5;fontColor=#333333;strokeColor=#666666;" vertex="1" parent="WIyWlLk6GJQsqaUBKTNV-1">
          <mxGeometry x="420" y="560" width="120" height="60" as="geometry" />
        </mxCell>
        <mxCell id="kNHVGDkVlNN8PsUicPPs-41" value="&lt;div&gt;ReadyToQuit&lt;/div&gt;" style="rounded=1;whiteSpace=wrap;html=1;fillColor=#f5f5f5;fontColor=#333333;strokeColor=#666666;" vertex="1" parent="WIyWlLk6GJQsqaUBKTNV-1">
          <mxGeometry x="240" y="680" width="120" height="60" as="geometry" />
        </mxCell>
        <mxCell id="kNHVGDkVlNN8PsUicPPs-45" style="edgeStyle=orthogonalEdgeStyle;rounded=0;orthogonalLoop=1;jettySize=auto;html=1;entryX=0.432;entryY=0.998;entryDx=0;entryDy=0;entryPerimeter=0;strokeColor=#007FFF;" edge="1" parent="WIyWlLk6GJQsqaUBKTNV-1" source="kNHVGDkVlNN8PsUicPPs-41" target="kNHVGDkVlNN8PsUicPPs-19">
          <mxGeometry relative="1" as="geometry">
            <Array as="points">
              <mxPoint x="400" y="710" />
              <mxPoint x="400" y="410" />
              <mxPoint x="472" y="410" />
            </Array>
          </mxGeometry>
        </mxCell>
        <mxCell id="kNHVGDkVlNN8PsUicPPs-42" style="edgeStyle=orthogonalEdgeStyle;rounded=0;orthogonalLoop=1;jettySize=auto;html=1;entryX=-0.006;entryY=0.598;entryDx=0;entryDy=0;entryPerimeter=0;" edge="1" parent="WIyWlLk6GJQsqaUBKTNV-1" source="kNHVGDkVlNN8PsUicPPs-0" target="kNHVGDkVlNN8PsUicPPs-41">
          <mxGeometry relative="1" as="geometry">
            <Array as="points">
              <mxPoint x="60" y="716" />
            </Array>
          </mxGeometry>
        </mxCell>
        <mxCell id="kNHVGDkVlNN8PsUicPPs-43" value="&lt;div&gt;lib::Clearscr&lt;/div&gt;" style="rounded=1;whiteSpace=wrap;html=1;glass=1;fillColor=#f5f5f5;fontColor=#333333;strokeColor=#666666;" vertex="1" parent="WIyWlLk6GJQsqaUBKTNV-1">
          <mxGeometry x="420" y="680" width="120" height="60" as="geometry" />
        </mxCell>
        <mxCell id="kNHVGDkVlNN8PsUicPPs-35" style="edgeStyle=orthogonalEdgeStyle;rounded=0;orthogonalLoop=1;jettySize=auto;html=1;" edge="1" parent="WIyWlLk6GJQsqaUBKTNV-1" source="kNHVGDkVlNN8PsUicPPs-33" target="kNHVGDkVlNN8PsUicPPs-36">
          <mxGeometry relative="1" as="geometry">
            <mxPoint x="460" y="590" as="targetPoint" />
          </mxGeometry>
        </mxCell>
        <mxCell id="kNHVGDkVlNN8PsUicPPs-44" style="edgeStyle=orthogonalEdgeStyle;rounded=0;orthogonalLoop=1;jettySize=auto;html=1;" edge="1" parent="WIyWlLk6GJQsqaUBKTNV-1" source="kNHVGDkVlNN8PsUicPPs-41" target="kNHVGDkVlNN8PsUicPPs-43">
          <mxGeometry relative="1" as="geometry" />
        </mxCell>
      </root>
    </mxGraphModel>
  </diagram>
</mxfile>
